<?xml version="1.0"?><svg width="547.8244" height="374.53711" xmlns="http://www.w3.org/2000/svg">
 <title>siluetas de personas</title>

 <metadata id="metadata7">image/svg+xml</metadata>
 <g>
  <title>Layer 1</title>
  <g id="layer1">
   <path fill="#000000" id="path2689" d="m303.030273,374.293121c-0.330048,-0.126556 -1.279724,-1.14209 -2.110321,-2.256744c-1.212769,-1.62738 -1.827484,-2.212524 -3.120667,-2.97052c-1.980103,-1.160614 -2.793121,-1.992828 -3.311798,-3.389954c-0.589691,-1.588287 -0.529663,-4.53299 0.131836,-6.4711c0.366699,-1.074341 0.44577,-1.581665 0.256287,-1.644836c-0.479004,-0.159637 -1.231415,-1.086517 -1.825684,-2.248962c-0.562195,-1.09967 -0.579559,-1.313446 -0.730103,-9.001831c-0.178864,-9.133057 0.263275,-17.727875 1.251068,-24.318817c1.765564,-11.780426 2.016479,-14.006195 2.016022,-17.883667c-0.000549,-4.904144 -0.539703,-20.291565 -0.828491,-23.644867c-0.051147,-0.594116 -0.166168,-2.052399 -0.255524,-3.240662c-0.089386,-1.188232 -0.199951,-2.581818 -0.245728,-3.096802c-0.087067,-0.979889 -0.514862,-6.347015 -0.719421,-9.025665c-0.065521,-0.858185 -0.222687,-2.4245 -0.349243,-3.480743c-0.126556,-1.056183 -0.399902,-3.486694 -0.607422,-5.401093c-0.20752,-1.914368 -0.424652,-3.858795 -0.482513,-4.320862c-0.057892,-0.462097 -0.273804,-2.46051 -0.479858,-4.440918c-0.205994,-1.980438 -0.422974,-3.978821 -0.482117,-4.440933c-0.114838,-0.897064 -0.608978,-5.70195 -1.296051,-12.602585c-0.301025,-3.023422 -1.291046,-9.257355 -1.944244,-12.242493c-0.844208,-3.858093 -1.954376,-7.632843 -2.386627,-8.114746c-0.095245,-0.106232 -0.244751,2.810364 -0.332184,6.481339c-0.335022,14.061478 -0.941589,32.457809 -1.526031,46.282547c-0.379974,8.988495 -0.503632,30.627563 -0.193481,33.854523c0.158447,1.648529 0.566101,6.559509 0.736633,8.874237c0.077789,1.056213 0.355774,2.946594 0.617676,4.200867c0.261932,1.254272 1.221619,5.846924 2.132629,10.205933c2.629974,12.58374 2.701019,13.767639 1.663391,27.721863c-0.475708,6.397583 -0.508911,6.617676 -1.076447,7.130249l-0.585602,0.528931l0.606567,0.893799c0.829498,1.222351 0.914215,1.695892 0.781769,4.369934c-0.188019,3.796967 -1.233978,5.604462 -3.434113,5.934418c-1.590881,0.238556 -1.803162,0.501068 -2.13504,2.640228c-0.342651,2.20874 -0.515076,2.674652 -1.107117,2.991486c-0.237122,0.126923 -1.979797,0.575317 -3.872559,0.996399c-3.258453,0.724976 -3.760345,0.770752 -9.442596,0.861084l-6.001221,0.095398l-1.004791,-0.863922c-1.176971,-1.011993 -1.755768,-2.61438 -1.755768,-4.860779c0,-1.264496 0.130585,-1.639984 1.239746,-3.563812c2.357056,-4.088257 4.517487,-8.587219 4.268036,-8.887817c-0.129089,-0.155518 -1.070068,-0.333679 -2.091064,-0.395935c-3.669739,-0.223755 -6.333191,-1.652222 -6.620911,-3.550964c-0.069824,-0.460907 -0.297455,-4.13266 -0.505798,-8.159485c-0.208313,-4.026825 -0.6987,-13.262726 -1.089722,-20.5242c-0.391022,-7.261505 -0.927917,-17.361572 -1.193146,-22.444611c-0.547852,-10.498901 -0.641449,-11.838379 -1.94574,-27.845703c-0.521729,-6.40332 -1.061218,-12.290527 -1.198822,-13.082703c-0.499298,-2.874268 -3.257538,-14.579437 -4.299011,-18.243744c-1.164612,-4.097412 -3.012817,-13.064651 -5.541412,-26.885498c-0.638092,-3.487579 -0.611816,-3.424438 -1.497238,-3.59906c-1.230804,-0.242737 -2.044296,-0.617691 -2.195587,-1.011993c-0.153687,-0.400467 0.163162,-3.348724 0.704041,-6.551239c0.189529,-1.122253 0.567673,-3.498718 0.840317,-5.281082c0.272644,-1.782379 0.541519,-3.52562 0.597534,-3.873886c0.067856,-0.422119 -0.056778,-0.776779 -0.373886,-1.063751c-0.790314,-0.715225 -2.558899,-3.552658 -5.064987,-8.126083c-2.813187,-5.133743 -2.770325,-4.949722 -3.553375,-15.2621c-1.24176,-16.353256 -1.705124,-21.882141 -1.93425,-23.079132c-0.454941,-2.37677 -0.960724,-11.303406 -1.113449,-19.651497c-0.169296,-9.255127 -0.283859,-7.934616 2.061676,-23.762985c0.264114,-1.782364 0.70192,-4.752983 0.972885,-6.601364c1.856796,-12.665932 2.618912,-16.155556 4.226028,-19.349747c1.25293,-2.490295 2.696182,-3.46434 8.144592,-5.496811c6.84845,-2.554718 18.368591,-7.374039 19.825562,-8.293793c0.564453,-0.356308 1.299255,-1.239647 2.023285,-2.432236c0.625336,-1.030006 2.105804,-2.938194 3.289978,-4.240433c1.184174,-1.302238 2.290405,-2.707062 2.458282,-3.121819c0.167908,-0.414749 0.37149,-2.292938 0.452423,-4.173729l0.147186,-3.419624l-0.957001,-1.480629c-0.526306,-0.81435 -1.062592,-1.873009 -1.191742,-2.352589c-0.16629,-0.617569 -0.541016,-1.08778 -1.284363,-1.611771c-1.285919,-0.906391 -2.244781,-2.12656 -2.421875,-3.081848c-0.182983,-0.987312 -0.579834,-4.234821 -0.74765,-6.11832c-0.3992,-4.480751 -0.571411,-5.724842 -0.913788,-6.60136c-0.728333,-1.864613 -0.4104,-10.633661 0.491669,-13.56278c0.354004,-1.14933 0.74408,-1.654541 3.01297,-3.90217c1.433441,-1.42005 3.405792,-3.121391 4.382965,-3.780771c1.489624,-1.00519 1.954193,-1.198879 2.875702,-1.198879c0.694672,0 1.532104,-0.21945 2.276093,-0.59646c3.608673,-1.82866 6.479706,-2.480209 8.592163,-1.94994c0.757385,0.19014 1.971222,0.41501 2.697388,0.499741c2.506378,0.292419 5.367645,0.87887 6.076538,1.24543c0.936188,0.484129 6.987,6.402119 7.672119,7.503719c0.582855,0.93721 0.577454,0.84852 0.713684,11.679482l0.060608,4.819187l0.703796,1.017872l0.703766,1.01786l-0.292969,3.736351c-0.45636,5.820179 -0.637146,6.421467 -2.800751,9.314617c-0.691162,0.924183 -1.32608,2.004402 -1.411011,2.400482c-0.0849,0.396088 0.013763,1.692348 0.219238,2.880589c0.306244,1.770779 0.57782,2.503681 1.505768,4.063412c1.273895,2.141258 3.278595,4.412758 5.153717,5.839668c1.518768,1.155724 9.394043,4.645401 12.364685,5.479027c1.153656,0.323723 3.069702,0.859016 4.257965,1.189514c13.049774,3.629753 13.376587,3.743553 14.78006,5.147026c1.027222,1.027214 1.168457,1.31369 1.641815,3.329857c1.284973,5.473206 2.096252,13.986885 3.377625,35.443893c0.954895,15.990822 1.008331,17.88813 0.906036,32.166611c-0.106476,14.860733 -0.153534,15.652786 -1.397583,23.524796c-1.655762,10.47728 -3.347717,15.707733 -6.659393,20.586609c-0.648865,0.955902 -1.801849,2.706909 -2.562256,3.89119l-1.382568,2.153214l0.630981,6.248505c0.347015,3.436676 0.630127,7.46376 0.62915,8.949081l-0.001831,2.700562l-0.708344,0c-0.389587,0 -1.232758,0.112442 -1.873718,0.249924l-1.165375,0.249908l0.044037,4.611084c0.081024,8.485291 -0.28418,16.20578 -0.978912,20.694336c-0.347351,2.244492 -0.734894,5.593155 -0.861206,7.441544c-0.301239,4.409286 -0.55954,7.378098 -1.40979,16.203323c-0.981049,10.182983 -1.175537,15.674774 -1.372833,38.767944c-0.225555,26.398193 -0.225037,27.491974 0.019562,43.104767c0.16095,10.274414 0.142609,13.462708 -0.079987,13.878632c-0.351685,0.657074 -1.697845,1.254883 -4.635101,2.058289c-3.63446,0.99411 -3.6633,1.415802 -0.407928,5.968811c2.715149,3.797394 4.019043,6.282654 4.229767,8.061951c0.179077,1.511749 -0.102448,1.97525 -2.127136,3.502594c-2.08197,1.570526 -3.225433,2.009277 -6.290009,2.413483c-2.948273,0.388855 -10.724304,0.441986 -11.669037,0.079742zm-5.193878,-282.870041c0.344757,-1.58432 0.787567,-3.852791 0.9841,-5.041031c0.907318,-5.486992 3.04892,-20.804893 2.925934,-20.927895c-0.030609,-0.030594 -1.077545,1.46534 -2.326508,3.324303c-1.248962,1.858963 -2.522919,3.578293 -2.831055,3.820732c-0.549255,0.432198 -0.579712,0.428551 -1.560303,-0.186661c-0.550079,-0.3451 -1.875122,-1.419533 -2.944519,-2.387619l-1.944366,-1.760162l-1.871552,2.055923l-1.87149,2.055916l1.471954,2.12413c0.809631,1.168274 1.678497,2.645157 1.930908,3.281967c0.252411,0.63681 1.127106,2.562134 1.943817,4.278473c2.177948,4.577011 4.209534,9.389122 4.692627,11.115067c0.23291,0.832214 0.502289,1.426323 0.598541,1.320274c0.096313,-0.106064 0.457153,-1.48909 0.80191,-3.073418zm-19.77124,-2.418594c0,-1.421181 1.003815,-6.402916 2.073395,-10.289795c0.474426,-1.724174 1,-3.835251 1.167908,-4.691284c0.303864,-1.549179 0.302002,-1.561188 -0.401245,-2.583336c-0.38858,-0.564804 -0.819061,-1.349724 -0.956604,-1.744255c-0.137543,-0.394539 -0.3284,-0.717339 -0.424164,-0.717339c-0.095734,0 -1.396515,1.355293 -2.890594,3.011772c-1.6633,1.844055 -2.863434,2.983467 -3.095398,2.938797c-0.208374,-0.040131 -0.665863,-0.647339 -1.016663,-1.349358c-0.768829,-1.538734 -1.178009,-2.015709 -1.178009,-1.373291c0,1.129219 4.097015,13.347649 5.662994,16.888588c0.655548,1.482338 1.05838,1.447891 1.05838,-0.0905zm1.631256,-21.586327c1.219177,-1.452293 2.283722,-2.895134 2.365601,-3.206299c0.129364,-0.491493 -0.586029,-1.301186 -5.449341,-6.167831c-3.079071,-3.081139 -5.676788,-5.553535 -5.772766,-5.494225c-0.095978,0.059311 -0.247894,0.542343 -0.337616,1.07338c-0.112427,0.665466 -0.529694,1.392464 -1.342651,2.339226c-1.357758,1.581306 -1.359619,1.02877 0.02124,6.294701c0.502014,1.914391 1.038116,4.128838 1.191406,4.921005c0.153259,0.79216 0.891479,2.719765 1.640381,4.283539l1.361755,2.843269l2.052612,-2.123116c1.128967,-1.167709 3.050171,-3.311348 4.269379,-4.763649zm18.930054,1.560318c3.194366,-4.601349 3.337982,-4.951851 3.787354,-9.24189c0.542816,-5.182297 0.555145,-5.066582 -0.7052,-6.60305c-0.594879,-0.72522 -1.188293,-1.318573 -1.318695,-1.318573c-0.130371,0 -2.695251,2.330711 -5.699768,5.179359c-3.004486,2.848656 -5.891907,5.565254 -6.416473,6.036903c-0.925446,0.832077 -0.943268,0.877213 -0.600128,1.518959c0.393951,0.736771 5.27356,5.602631 6.955017,6.935394c0.594116,0.470909 1.230499,0.828606 1.414215,0.794884c0.183685,-0.03373 1.346375,-1.519615 2.583679,-3.301987zm111.465759,289.346626c-2.613586,-0.326965 -7.641602,-1.367981 -8.124115,-1.682037c-0.309418,-0.201416 -0.781616,-0.861359 -1.049347,-1.466644c-0.44046,-0.995636 -0.458313,-1.227783 -0.1875,-2.437744c0.288788,-1.290497 0.460083,-1.501251 4.893158,-6.020752c4.550568,-4.639374 6.825317,-7.473633 7.968231,-9.928314c0.498383,-1.070374 0.57605,-1.595337 0.578064,-3.907654c0.001617,-1.852448 -0.08963,-2.74408 -0.297729,-2.909058c-0.165009,-0.130829 -1.110229,-0.25824 -2.100433,-0.283051c-0.990173,-0.024841 -1.872528,-0.120056 -1.960754,-0.211578c-0.271423,-0.281616 -1.152191,-9.219574 -1.49881,-15.209991c-0.180786,-3.124908 -0.386169,-5.774597 -0.45639,-5.888184c-0.118439,-0.19162 -0.568817,-5.445465 -1.4776,-17.236084c-0.204773,-2.656616 -0.788513,-7.320587 -1.306946,-10.442139c-0.515289,-3.102631 -1.057556,-6.721375 -1.205017,-8.041626c-0.529633,-4.742188 -0.817474,-5.888763 -3.766357,-15.003082c-3.243866,-10.026031 -8.234589,-24.725861 -8.501556,-25.04071c-0.091248,-0.107605 -0.238922,1.944809 -0.328186,4.560944c-0.089264,2.616089 -0.265686,5.782745 -0.39209,7.037018c-0.126373,1.254242 -0.336151,3.522705 -0.466156,5.041c-0.130035,1.518326 -0.516571,5.6772 -0.859009,9.241898c-0.342438,3.564758 -0.712646,9.289917 -0.822754,12.722626c-0.46756,14.578796 -0.733124,23.378357 -0.978973,32.436737c-0.143768,5.297607 -0.355103,10.050598 -0.469604,10.562134c-0.114532,0.511597 -0.389069,1.038177 -0.610077,1.170197c-1.268036,0.757477 -1.351074,0.941986 -2.166077,4.813446c-0.443237,2.105591 -0.80896,4.162659 -0.812653,4.571259c-0.008331,0.920166 -0.476257,1.355103 -2.167175,2.014343c-0.726135,0.283112 -1.914398,0.804749 -2.640533,1.15918c-1.274658,0.622223 -1.461243,0.64447 -5.401123,0.64447c-2.818359,0 -4.388245,-0.10202 -5.074615,-0.329773c-0.926239,-0.307343 -1.081207,-0.289368 -2.280457,0.264648c-0.707672,0.326904 -2.258881,1.323425 -3.447144,2.214478c-3.746246,2.809235 -4.184265,2.950104 -11.983185,3.853943c-5.55658,0.643951 -6.870148,0.575439 -9.923248,-0.517517c-1.372314,-0.491272 -2.197845,-1.865784 -2.279785,-3.795837c-0.057007,-1.343262 -0.030334,-1.408997 0.901459,-2.224396c0.921326,-0.806183 8.00061,-4.392181 12.904572,-6.536774c1.28833,-0.563416 2.61203,-1.23645 2.941528,-1.495667c0.329498,-0.259186 1.319366,-1.516296 2.199677,-2.793579c0.88031,-1.277283 1.986023,-2.80426 2.457214,-3.39328c0.471161,-0.58902 0.827209,-1.244873 0.791199,-1.457458c-0.036041,-0.212555 0.16095,-1.350983 0.437714,-2.529755c2.348511,-10.002533 3.120544,-13.546051 3.44809,-15.826111c0.487762,-3.395721 1.990417,-15.574982 2.19165,-17.763641c0.172089,-1.872406 -0.428864,-11.646332 -0.944641,-15.363159c-0.183197,-1.320282 -0.834534,-5.96521 -1.447327,-10.322113c-0.612823,-4.356903 -1.546967,-11.054291 -2.075867,-14.883057c-1.424896,-10.315582 -3.609894,-23.122635 -5.242065,-30.726288l-1.44281,-6.721405l-0.511292,-7.921631c-0.520538,-8.065063 -0.730042,-17.965088 -0.404724,-19.124817c0.164856,-0.587616 0.043579,-0.740112 -1.455292,-1.830322c-2.552094,-1.856216 -5.341614,-5.877914 -6.444458,-9.291031l-0.620453,-1.920395l-0.230072,-14.643005c-0.337372,-21.47271 0.141998,-32.471764 1.987762,-45.60936c1.905396,-13.561676 2.298767,-15.161736 4.146027,-16.864494c1.322845,-1.21936 2.926056,-2.279411 8.64444,-5.715782c5.276489,-3.170792 6.973419,-4.566917 9.842499,-8.09771c1.879303,-2.312737 2.295227,-3.277763 2.307617,-5.353577c0.008392,-1.405746 -0.394806,-2.413254 -1.623383,-4.056641c-1.055969,-1.412483 -2.308685,-3.876869 -2.607056,-5.1287c-0.082947,-0.34787 -0.233429,-0.740509 -0.334442,-0.872536c-0.531464,-0.694618 -1.245941,-4.220806 -1.896973,-9.361916c-0.401215,-3.168652 -0.900757,-6.8414 -1.110077,-8.161671c-0.55127,-3.477169 -0.508911,-6.589291 0.116608,-8.563171c0.839417,-2.648899 3.517395,-5.74715 6.543121,-7.569981c2.179565,-1.313028 3.579712,-1.569118 9.237457,-1.689518l5.078705,-0.10807l2.002747,0.87566c4.755646,2.07935 5.268951,2.378441 6.691437,3.898979c3.122467,3.337662 3.768341,4.895901 4.092896,9.874561c0.166656,2.55658 0.319672,3.535278 0.595947,3.811558c0.304413,0.304432 0.355164,0.876621 0.280365,3.161503c-0.110931,3.387188 -0.63446,5.382187 -2.324799,8.858868l-1.211853,2.492538l0,2.49276l0,2.49276l2.580536,2.7173c1.419281,1.494514 3.284149,3.575096 4.144135,4.623512l1.563599,1.906227l6.421021,1.96524c10.156708,3.108604 11.444366,3.556152 14.40448,5.006676c2.404572,1.178268 2.922272,1.538689 3.74057,2.604164c0.522339,0.680153 1.123047,1.614723 1.334839,2.076813c0.554779,1.210388 2.945404,13.60331 3.496155,18.123718c1.394531,11.446419 2.459869,21.741539 2.546112,24.605049c0.05368,1.782349 0.213165,4.02594 0.354401,4.985748c0.270264,1.836548 0.347351,5.754356 0.12738,6.473549c-0.071167,0.232727 -0.352539,2.136765 -0.625244,4.231247c-0.272675,2.094421 -0.668793,4.142578 -0.880219,4.551453c-0.889069,1.719269 -9.208496,14.043274 -10.885651,16.125458l-0.773376,0.960175l0.143036,2.400513c0.078644,1.320282 0.749298,6.559326 1.490326,11.642395c1.174622,8.05748 1.375244,9.980225 1.56546,15.003052c0.119995,3.16864 0.468353,7.803162 0.774109,10.298889l0.555969,4.537704l-0.916351,0.35997c-1.065918,0.418701 -1.212402,0.809143 -1.627747,4.338898c-0.498596,4.236877 -0.169342,8.219482 0.955627,11.559418c0.246155,0.730804 0.60733,2.297119 0.802582,3.480713c1.130371,6.851761 3.648468,21.508728 4.349457,25.316711c0.449615,2.442474 1.197693,6.763367 1.662415,9.601959c0.464691,2.838593 1.165222,6.241272 1.556702,7.561554c1.739075,5.865326 1.708527,5.616821 1.702423,13.842804c-0.003052,4.136871 -0.106476,12.436584 -0.229889,18.443817c-0.123352,6.007233 -0.238647,16.593384 -0.256165,23.524811l-0.031921,12.60257l0.742584,2.280487c0.577057,1.772186 0.804474,3.056274 1.020325,5.761169c0.152802,1.914398 0.201202,3.984924 0.107605,4.601135c-0.218597,1.439026 -1.228271,2.826508 -2.840118,3.902954c-0.697083,0.465515 -1.505707,1.020996 -1.796906,1.234406c-0.291199,0.213409 -0.968445,0.410583 -1.505005,0.438171c-0.913483,0.046936 -1.072754,0.173065 -2.504486,1.983734c-1.845978,2.334503 -3.764954,4.230835 -5.062988,5.003265c-1.063751,0.633057 -4.320282,1.739838 -7.782166,2.644928c-2.25415,0.589325 -5.146576,0.882355 -6.740814,0.682922zm-208.842804,-10.316254c-0.330078,-0.058929 -2.166458,-0.322296 -4.080841,-0.585266c-3.103653,-0.426331 -3.699036,-0.586792 -5.496155,-1.481323c-1.10849,-0.551758 -3.106903,-1.802246 -4.440903,-2.7789c-3.057251,-2.238251 -3.025009,-2.222443 -6.65416,-3.260437c-3.65918,-1.046539 -5.399185,-1.814453 -6.343521,-2.799438c-0.67334,-0.702301 -0.714371,-0.863342 -0.792084,-3.108948c-0.087677,-2.532471 0.300415,-4.470947 1.183411,-5.911255c0.252396,-0.411682 0.458878,-0.815491 0.458878,-0.897369c0,-0.081879 -0.439331,-0.219086 -0.976303,-0.304962c-1.466431,-0.234528 -1.628281,-0.504639 -1.372147,-2.290192c0.277069,-1.931549 0.055038,-4.418243 -0.584213,-6.542725c-0.479828,-1.594757 -0.493454,-1.992188 -0.338089,-9.842041c0.116745,-5.899628 0.058228,-10.555878 -0.209961,-16.701904c-0.361389,-8.281708 -0.556808,-40.295807 -0.249054,-40.793839c0.07341,-0.118729 0.017166,-4.788528 -0.124954,-10.377304c-0.198441,-7.802429 -0.395203,-11.392456 -0.84758,-15.464218c-0.32402,-2.916565 -0.645142,-5.873978 -0.713516,-6.572098c-0.068405,-0.69809 -0.606155,-3.226852 -1.194977,-5.619431c-0.588806,-2.392578 -1.070618,-4.532822 -1.070679,-4.756088c-0.000061,-0.223221 -0.097839,-0.466309 -0.217331,-0.540146c-0.122101,-0.075485 -0.166458,0.259903 -0.101318,0.766006c0.063721,0.495117 -0.112885,2.142487 -0.392456,3.660767c-1.039627,5.645782 -1.215317,6.637207 -1.446396,8.161697c-0.130081,0.85817 -0.336472,2.154434 -0.458679,2.880585c-0.301453,1.791153 -2.547806,10.484634 -4.745132,18.363785c-0.994095,3.564697 -1.964386,7.075439 -2.156128,7.801575c-0.191757,0.726166 -1.522598,5.641174 -2.957397,10.922241c-3.555191,13.085602 -3.860245,14.242615 -4.082443,15.483185c-1.308044,7.303833 -1.981461,11.744385 -2.303009,15.186188c-0.212601,2.275757 -0.52594,5.488037 -0.696304,7.138367c-0.170364,1.65036 -0.32251,5.917236 -0.338089,9.481964c-0.015549,3.564728 -0.098969,9.505951 -0.185364,13.202698c-0.143951,6.161316 -0.194,6.747528 -0.600693,7.035065c-0.39418,0.278656 -0.443695,0.675598 -0.443695,3.556488c0,1.987946 -0.107193,3.44574 -0.277054,3.767181c-0.15242,0.288391 -0.722702,0.956421 -1.267303,1.484528c-0.544617,0.528107 -1.777008,1.844849 -2.738663,2.926117l-1.748474,1.965912l-1.267487,-0.045532c-1.234451,-0.044342 -1.306793,-0.009155 -2.774155,1.348663c-2.350845,2.175415 -4.662262,3.695435 -6.082687,4.000061c-1.389282,0.297943 -4.462059,0.162811 -8.209175,-0.361023c-1.320267,-0.18457 -3.016495,-0.38974 -3.769394,-0.455963c-2.213013,-0.194641 -2.902252,-0.599304 -3.53801,-2.077209c-0.431519,-1.003082 -0.52272,-1.55423 -0.420685,-2.542755c0.154694,-1.498779 0.560745,-2.284302 2.324631,-4.497162c0.727448,-0.912567 1.808716,-2.275421 2.402847,-3.028503c0.594116,-0.753082 1.981323,-2.43689 3.082657,-3.741821c1.944717,-2.30423 3.551773,-4.931305 3.282822,-5.366455c-0.072815,-0.117828 -0.729584,-0.34787 -1.459518,-0.5112c-0.729919,-0.163361 -1.362442,-0.359741 -1.405609,-0.436401c-0.043182,-0.07666 0.064514,-1.489655 0.239304,-3.140015c0.409088,-3.862213 0.5047,-22.717255 0.146698,-28.925934c-0.144653,-2.508514 -0.332779,-8.449707 -0.418106,-13.202698c-0.162842,-9.075775 -0.193466,-8.484314 1.093781,-21.124329c1.032822,-10.141418 1.31752,-14.773361 1.549271,-25.20517c0.133606,-6.01474 0.490417,-14.473145 0.741455,-17.57785l0.120865,-1.494507l-0.791702,-0.330811c-0.435425,-0.181946 -1.691635,-1.019989 -2.791565,-1.86232c-2.364166,-1.810532 -3.233124,-3.245346 -3.653717,-6.032974c-0.290619,-1.92627 -0.33493,-7.726074 -0.085037,-11.134613l0.160217,-2.185608l-0.982819,-0.157166c-0.540558,-0.086456 -1.362381,-0.33815 -1.826294,-0.559387l-0.843491,-0.402237l-0.000366,-12.738144c-0.000183,-7.005997 -0.069397,-19.11145 -0.153809,-26.901077c-0.148575,-13.711319 0.087601,-26.683327 0.633743,-34.807121c0.124268,-1.848389 0.286346,-4.710968 0.360168,-6.361305c0.280182,-6.263069 0.647247,-10.833473 1.224228,-15.243118c0.328217,-2.508522 0.808807,-6.289291 1.067963,-8.401733c0.731827,-5.96563 1.161209,-8.741486 1.429718,-9.243225c0.475372,-0.888245 3.831024,-2.863892 13.442055,-7.914063c7.341827,-3.857803 9.447342,-5.049072 13.922852,-7.877281c6.300659,-3.98159 6.883987,-4.367233 7.262161,-4.801178c0.200699,-0.230278 0.496033,-1.442589 0.672852,-2.76194c0.260696,-1.945335 0.260406,-2.505074 -0.001724,-3.240662c-0.446014,-1.251511 -1.169998,-2.20945 -1.669815,-2.20945c-0.237228,0 -0.940842,-0.66338 -1.591293,-1.500301c-0.949936,-1.22224 -1.292648,-1.945217 -1.849197,-3.900799c-0.898026,-3.155499 -1.149368,-6.549049 -0.552475,-7.459999c0.489243,-0.746693 0.518112,-1.015869 0.82193,-7.663101c0.296936,-6.49696 0.686249,-7.888271 3.003113,-10.73245c1.239258,-1.521318 3.731384,-3.488958 4.673233,-3.689709c0.34845,-0.07427 1.65976,-0.518431 2.914017,-0.98703l2.280472,-0.85199l3.960815,0.13851c7.141769,0.24975 9.455383,1.1411 13.463348,5.186909c3.31926,3.350613 3.921249,4.508579 3.932343,7.564041c0.004318,1.194321 -0.136765,3.634308 -0.313553,5.422218c-0.318024,3.21629 -0.315735,3.26038 0.214874,4.159679c0.51178,0.867443 0.528656,1.064262 0.369232,4.310802c-0.262314,5.342289 -1.130432,8.32288 -2.424088,8.32288c-0.643463,0 -0.887268,0.58976 -1.290054,3.12064c-0.468826,2.945862 -0.584991,5.644814 -0.28241,6.561653c0.308777,0.93557 2.039764,2.633247 4.934113,4.839104c1.538559,1.172569 2.439987,1.564651 10.68219,4.646339c4.951019,1.851143 11.106216,4.324745 13.678207,5.496887c3.938751,1.795006 4.746445,2.251175 5.120773,2.892097c0.575333,0.985107 3.673355,11.769012 3.875931,13.491692c0.153107,1.302055 0.625793,4.761528 1.098785,8.041649c0.13324,0.924187 0.294006,2.112442 0.357224,2.640541c0.063187,0.528107 0.278229,2.094429 0.477859,3.480721c0.1996,1.386276 0.46907,3.276665 0.598877,4.200859c0.642014,4.572151 1.34903,18.765091 1.799622,36.127419c0.200455,7.723572 0.472351,17.823639 0.604202,22.44458c0.131851,4.620941 0.309967,12.421585 0.395782,17.334747l0.156036,8.933029l-0.698914,0.269806c-0.384369,0.148392 -1.326706,0.225998 -2.09407,0.17244c-1.09404,-0.076355 -1.436737,-0.016083 -1.587646,0.279129c-0.105835,0.207047 -0.263351,1.596344 -0.350067,3.087311c-0.106339,1.829163 -0.315445,3.117355 -0.642944,3.9608c-0.266937,0.6875 -0.688248,2.330185 -0.936264,3.650482c-0.826904,4.402252 -0.899933,4.579742 -2.905518,7.061295c-2.530197,3.130692 -3.252991,3.778183 -6.585342,5.899307c-1.58432,1.008514 -2.964462,1.915894 -3.066956,2.016403c-0.102524,0.10051 -0.056137,3.229782 0.103088,6.953903c0.355484,8.314148 -0.056396,30.684113 -0.649612,35.281921c-0.198639,1.539703 -0.52626,4.095734 -0.728027,5.680054c-0.562546,4.417145 -1.009933,7.427124 -1.534195,10.322113c-0.263016,1.452301 -0.643433,3.666748 -0.845352,4.921021c-0.201965,1.254242 -0.526794,3.144623 -0.721893,4.200836c-0.195099,1.056244 -0.458893,2.892609 -0.586243,4.080841c-0.252884,2.359894 -0.793304,6.843079 -1.345535,11.162292c-0.41153,3.218628 -0.781677,10.054535 -1.019058,18.819153l-0.168381,6.216553l-1.140228,0.332031c-1.257782,0.366302 -1.258362,0.367065 -0.861343,1.113464c1.239639,2.330627 5.9216,6.454285 12.191757,10.738037c3.325562,2.271942 5.429153,3.943146 6.091568,4.839417c0.291855,0.394897 0.523743,1.171051 0.590546,1.976685c0.102982,1.241852 0.06189,1.371399 -0.64444,2.031219c-0.918503,0.858002 -4.089371,2.103516 -6.242462,2.451996c-1.76918,0.286377 -5.821716,0.469391 -6.74472,0.304626zm328.147186,-10.189789c-2.056519,-0.65387 -2.522766,-0.716156 -4.748413,-0.634369c-1.549377,0.056946 -2.593201,-0.006439 -2.80426,-0.170319c-0.184814,-0.143524 -0.403931,-0.855133 -0.486694,-1.581268c-0.297241,-2.605835 -0.59314,-4.167694 -0.835693,-4.410217c-0.142212,-0.142181 -0.246704,-1.497681 -0.246704,-3.199341l0,-2.952606l-0.834717,0c-1.332214,0 -1.595093,-0.645233 -1.734497,-4.257202c-0.096985,-2.513947 -0.247131,-3.473877 -0.835632,-5.344757c-0.850403,-2.704102 -0.899658,-3.823761 -0.232849,-5.29129c0.272461,-0.599731 0.563049,-1.517914 0.645752,-2.040436c0.146729,-0.926392 0.104797,-0.997711 -1.690491,-2.870392l-1.841003,-1.92038l0.146118,-3.960815c0.080383,-2.178436 0.241394,-4.619629 0.357788,-5.424835c0.141602,-0.980011 0.116516,-2.023773 -0.076111,-3.157196c-0.238281,-1.403351 -0.439758,-1.861725 -1.176758,-2.677521c-0.489136,-0.541382 -0.897034,-1.011047 -0.906433,-1.043671c-0.019165,-0.066559 -0.193756,-1.634888 -0.908234,-8.160095c-0.271118,-2.474976 -0.552734,-4.851471 -0.625854,-5.281067c-0.073303,-0.429565 -0.235474,-2.116943 -0.360474,-3.749634c-0.217285,-2.837921 -0.268677,-3.038696 -1.167603,-4.560944c-1.290466,-2.185272 -1.141785,-1.478516 -1.825317,-8.673798c-0.195801,-2.061401 -0.833862,-6.075989 -1.430786,-9.001831c-1.197021,-5.866608 -1.495178,-7.752625 -2.657104,-16.803467c-0.623169,-4.853851 -1.042969,-7.148407 -1.888672,-10.322113c-1.200195,-4.503998 -3.759705,-15.204468 -3.765503,-15.742172c-0.007019,-0.644928 -0.411316,-1.054016 -0.75824,-0.76709c-0.395264,0.327011 -0.140686,10.281082 0.416199,16.269226c1.018738,10.953079 1.291199,14.362411 1.525635,19.083908c0.437683,8.818024 0.756592,13.524536 0.98407,14.52298c0.1203,0.528091 0.751892,2.904602 1.403625,5.281097c0.878479,3.203613 1.282471,5.231781 1.562378,7.843719c0.207642,1.937592 0.769836,6.096436 1.249207,9.241882c0.836121,5.484344 0.866638,5.90625 0.743225,10.279999l-0.128723,4.560913l0.969238,3.00061l0.969055,3.000641l-0.100159,3.720764c-0.086304,3.207672 -0.170715,3.856537 -0.612,4.705505c-0.281494,0.541626 -0.468933,1.189758 -0.416504,1.440308c0.05249,0.250549 0.269653,1.193085 0.482849,2.094543c0.339722,1.437408 0.356323,2.337982 0.13501,7.321503c-0.138672,3.125366 -0.182251,5.944458 -0.096863,6.264618c0.125366,0.469788 -0.010925,0.724609 -0.705933,1.320282l-0.861267,0.738129l-0.360291,4.606354c-0.278198,3.557343 -0.4729,4.861176 -0.855225,5.725342l-0.494995,1.118988l-3.126404,-0.084198c-2.768494,-0.074524 -3.141113,-0.03775 -3.254883,0.321136c-0.07074,0.2229 -0.505219,0.736023 -0.965607,1.140228l-0.837128,0.734955l-6.314941,0c-3.473267,0 -7.80249,-0.07135 -9.620544,-0.158569l-3.305573,-0.158508l-0.459564,-0.741669c-0.383057,-0.618195 -0.433319,-1.001404 -0.302094,-2.301971c0.242157,-2.400024 1.143097,-3.95108 3.383972,-5.825775c2.089813,-1.748352 5.376648,-5.066437 5.78537,-5.840424c0.16568,-0.313751 0.212341,-1.14502 0.123688,-2.202789c-0.124756,-1.488037 -0.207672,-1.715271 -0.66806,-1.830811c-1.573486,-0.394928 -1.945099,-5.227936 -0.937164,-12.188141l0.371124,-2.562805l-0.952271,-1.638062c-0.523743,-0.90097 -1.470734,-3.096405 -2.104462,-4.878784l-1.152161,-3.240631l0.055786,-3.972229l0.055756,-3.972198l-1.24173,-4.309509c-1.182343,-4.103363 -1.243103,-4.452972 -1.270325,-7.310089c-0.021515,-2.253784 0.075256,-3.325134 0.388824,-4.304443c0.697205,-2.177429 0.572906,-3.145569 -0.641876,-5.000336l-1.059357,-1.617462l-0.627014,-4.560913c-0.344849,-2.508545 -0.841187,-6.073273 -1.102966,-7.921631c-0.26181,-1.848389 -0.68866,-5.305084 -0.948608,-7.68158c-0.259888,-2.376495 -0.747955,-5.774429 -1.084564,-7.550995c-0.873322,-4.609253 -2.975433,-13.182556 -3.47525,-14.173492c-0.233093,-0.462067 -0.935455,-3.27066 -1.560822,-6.241272c-1.080475,-5.132446 -2.258148,-10.338593 -2.782898,-12.302521c-0.195618,-0.732086 -0.351166,-0.900162 -0.832977,-0.900162c-0.325867,0 -0.796722,0.243027 -1.046417,0.540085c-0.249634,0.297089 -0.708008,0.841583 -1.018585,1.210052c-0.451294,0.535385 -0.795685,0.682953 -1.714935,0.734756c-0.876831,0.049423 -1.304718,0.219208 -1.800354,0.714249c-2.113525,2.111008 -2.663635,2.424789 -4.425629,2.524353c-1.11145,0.062805 -2.196259,-0.045532 -3.213623,-0.320908c-1.404633,-0.380219 -1.682373,-0.572342 -3.25177,-2.249023c-2.711182,-2.896591 -2.599823,-2.56282 -2.600861,-7.796066c-0.000854,-4.225662 -0.032349,-4.548584 -0.480042,-4.92099c-0.471985,-0.392639 -0.47998,-0.743073 -0.536621,-23.563293c-0.065277,-26.30394 -0.010376,-27.592987 2.003296,-47.04966c0.266479,-2.574524 0.68692,-7.273483 0.934326,-10.442139c0.247406,-3.168655 0.611237,-7.327507 0.808472,-9.241898c0.197235,-1.914391 0.420135,-4.290878 0.495392,-5.281082c0.890259,-11.717171 1.116486,-13.108299 2.424011,-14.906441c0.984955,-1.354485 6.099091,-5.911278 8.21109,-7.316223c1.088104,-0.723846 3.737305,-2.374825 5.887115,-3.668877c5.849548,-3.521019 7.328522,-4.545609 9.227844,-6.392754l1.730194,-1.682663l-0.203735,-2.617737l-0.203735,-2.617722l-1.200378,-1.103043c-1.46701,-1.348045 -2.143921,-2.468163 -2.341492,-3.87468c-0.176971,-1.260086 -0.401154,-1.909317 -1.476013,-4.274368c-1.566254,-3.44632 -2.016174,-5.646091 -2.233307,-10.919411c-0.28476,-6.915672 0.176392,-9.12281 2.505463,-11.991261c0.558105,-0.68734 1.084015,-1.51976 1.168762,-1.849831c0.286011,-1.114388 1.060272,-2.07346 3.282043,-4.065517c2.624146,-2.352833 3.858032,-2.952473 7.153381,-3.476381c2.226379,-0.353951 2.752319,-0.3559 5.869049,-0.02166c4.630371,0.496561 5.613098,0.81048 6.961853,2.223871c0.597717,0.626358 1.370514,1.333748 1.717316,1.571999c0.346802,0.238239 1.621185,1.750549 2.832184,3.36068c1.210938,1.610149 2.290527,2.988209 2.399048,3.062389c0.51416,0.351181 1.395569,1.819111 1.395569,2.324192c0,0.31097 0.179504,0.91111 0.398926,1.333637c0.21936,0.422543 0.65509,2.054581 0.968201,3.62677c0.552185,2.772282 0.5578,2.915302 0.185547,4.740391c-0.459778,2.254219 -1.817688,6.372532 -2.388245,7.243389c-0.287537,0.438862 -0.449341,1.353691 -0.544434,3.07909c-0.132874,2.413025 -0.150208,2.471283 -1.016113,3.428947c-1.384155,1.530815 -1.684753,2.090721 -1.684753,3.138115c0,0.83596 0.147156,1.117668 1.020203,1.953537c2.993652,2.866074 4.892395,3.789009 14.323029,6.962479c8.856506,2.98027 18.297607,6.473557 19.287415,7.136536c1.390503,0.931427 2.238525,2.513824 2.676086,4.99424c0.924988,5.242279 1.529419,7.386147 4.835327,17.150688c5.275208,15.581657 6.751465,20.291092 7.045959,22.477448c0.146301,1.085968 0.482422,4.945084 0.747131,8.575836c0.264587,3.63073 0.538818,6.980278 0.609375,7.443428c0.210815,1.38295 -0.346863,12.542984 -0.8396,16.801529c-0.251953,2.178452 -0.633484,5.635162 -0.847778,7.68158c-0.970398,9.26886 -3.24939,26.006973 -3.587097,26.344635c-0.072815,0.072754 -0.377319,0.26004 -0.676697,0.416229c-0.299438,0.156158 -0.522339,0.395111 -0.495483,0.531006c0.097656,0.493301 -0.421143,4.774811 -0.670715,5.535828c-0.173523,0.5289 -0.590637,0.977173 -1.291992,1.388184c-1.075439,0.630219 -3.247192,2.784363 -3.247192,3.220825c0,0.137299 -0.374695,0.664398 -0.832703,1.171326c-0.582642,0.644852 -1.483948,1.200623 -3.00061,1.85025l-2.167908,0.928513l0.00061,4.211716c0.001709,13.189331 1.480896,32.664474 3.365356,44.309265c1.1521,7.118835 1.224548,7.427048 2.132813,9.080902c0.871399,1.586884 2.398499,6.165222 3.605408,10.809509c0.951599,3.661896 1.272339,9.310944 1.32312,23.309113c0.039673,10.955353 0.112366,13.404968 0.469299,15.81897c0.2323,1.570984 0.608582,5.394348 0.836304,8.496399l0.413879,5.640076l-1.03241,0.456665c-0.96521,0.426971 -1.03241,0.518372 -1.03241,1.40509c0,0.876068 0.169312,1.117767 2.22052,3.169403c1.802429,1.802887 2.481628,2.699982 3.607422,4.765198c1.358276,2.491638 2.038513,4.777161 1.720154,5.779999c-0.202271,0.637482 -1.685242,1.378967 -4.046753,2.023346c-1.899292,0.518219 -2.816833,0.608673 -7.10199,0.700134l-4.921021,0.105042l-2.280518,-0.725098zm-463.534958,-0.457397c0,-0.17157 -0.232559,-0.513641 -0.516815,-0.760162c-0.373764,-0.324158 -0.418213,-0.448242 -0.160606,-0.448242c0.400772,0 1.0858,1.111938 0.83783,1.359924c-0.088219,0.088226 -0.160408,0.02002 -0.160408,-0.15152zm37.343094,-0.558624c0.090134,-0.236725 0.224365,-0.369965 0.298279,-0.296082c0.073921,0.073914 0.000145,0.267609 -0.163902,0.430481c-0.237068,0.235291 -0.264648,0.207703 -0.134377,-0.134399zm-59.66766,-0.155518c0,-0.139801 0.108021,-0.254211 0.240051,-0.254211c0.13203,0 0.240051,0.047638 0.240051,0.105865c0,0.058197 -0.108021,0.172607 -0.240051,0.254211c-0.13203,0.081573 -0.240051,0.033966 -0.240051,-0.105865zm41.9286,0.065826c-0.08802,-0.087982 -0.160042,-2.086395 -0.160042,-4.440918c0,-3.865662 0.043671,-4.324524 0.450089,-4.730957c0.247566,-0.247528 0.59864,-0.500916 0.780159,-0.563049c0.227211,-0.077759 0.012154,-0.432495 -0.69014,-1.138458c-0.981178,-0.986267 -1.02021,-1.082703 -1.02021,-2.519867c0,-0.82193 -0.070602,-2.807648 -0.156921,-4.412689l-0.156891,-2.918304l-0.890724,0l-0.890709,0l-1.830032,-4.88028c-1.775528,-4.734985 -2.664879,-8.076477 -2.903519,-10.909119c-1.28894,-15.300018 -1.861824,-42.26593 -1.138359,-53.584808c0.735657,-11.51004 0.731339,-11.00473 0.107727,-12.602585c-3.871918,-9.920792 -5.289719,-13.370377 -8.879593,-21.604431c-4.165237,-9.553802 -5.024849,-11.271988 -6.184254,-12.361191c-1.127323,-1.059082 -1.186115,-0.629211 -0.843727,6.168915c0.41708,8.281403 0.193722,38.675934 -0.339268,46.160492c-0.327824,4.603851 -0.328972,5.886658 -0.01046,11.882416c0.196384,3.696747 0.4076,7.132874 0.469414,7.635803c0.061817,0.50293 0.281364,2.933411 0.48793,5.401093c0.382317,4.567474 0.497074,5.181396 1.91523,10.247864c2.010338,7.182037 4.192169,16.236084 4.340134,18.010406c0.172142,2.063904 -0.078903,4.549652 -0.903938,8.950623l-0.50914,2.716034l-1.454597,1.418976l-1.454628,1.419006l-0.099091,3.180786c-0.066376,2.130005 -0.207039,3.345581 -0.425838,3.679504c-0.227692,0.347504 -0.264637,0.715302 -0.121838,1.213226c0.112705,0.392975 0.225883,1.84549 0.251537,3.227753c0.037918,2.046875 0.127369,2.602264 0.481953,2.993286c0.239456,0.264069 0.559532,0.720978 0.711304,1.015411c0.263763,0.511719 0.241341,0.528534 -0.510136,0.382294c-0.432297,-0.084106 -0.865372,-0.270935 -0.962376,-0.415222c-0.107712,-0.160217 -0.17778,-0.096741 -0.180046,0.163025c-0.003235,0.376343 -0.176582,0.409332 -1.503975,0.286285c-0.825165,-0.076508 -3.012619,-0.130554 -4.861,-0.120117c-1.848366,0.010468 -3.576729,0.020081 -3.840786,0.021362c-5.010731,0.024658 -6.341091,-0.025909 -6.477238,-0.246216c-0.24379,-0.39447 -0.602333,-0.042236 -0.428764,0.421173c0.133625,0.356689 0.101093,0.368988 -0.240685,0.091095c-0.25988,-0.211304 -0.655396,-0.264099 -1.155193,-0.154358c-0.45969,0.100983 -0.704468,0.077057 -0.619473,-0.060455c0.081356,-0.131622 -0.891708,-0.3396 -2.310448,-0.493744c-2.031128,-0.220734 -2.522957,-0.355225 -2.871078,-0.785065c-0.231052,-0.285309 -0.42009,-0.715607 -0.42009,-0.956268c0,-0.240662 -0.346085,-0.994293 -0.769051,-1.674744c-0.686584,-1.104462 -0.770267,-1.434418 -0.780148,-3.076538l-0.01112,-1.839417l1.429947,-1.800385c0.786469,-0.990204 2.054272,-2.46463 2.817329,-3.27652c1.601883,-1.704346 1.726494,-1.974213 2.223343,-4.814606c0.484795,-2.771606 0.467278,-3.926605 -0.118,-7.77713c-0.737652,-4.852783 -1.044582,-5.750946 -2.53661,-7.423065c-0.702641,-0.787506 -1.404503,-1.668976 -1.559647,-1.958893c-0.426186,-0.796295 -0.719936,-7.894257 -0.643883,-15.558167c0.064697,-6.522064 -0.223171,-10.902252 -1.12878,-17.175262c-0.058125,-0.402557 -0.328152,-3.049072 -0.60006,-5.881226c-0.2719,-2.832092 -0.548172,-5.473373 -0.613956,-5.869415c-0.065735,-0.396088 -0.218941,-2.340485 -0.340424,-4.320892c-0.143402,-2.33728 -0.427841,-4.443069 -0.810654,-6.001251c-0.789848,-3.215118 -2.808119,-10.741882 -2.935751,-10.948364c-0.056049,-0.090698 -1.523911,-5.442017 -3.261909,-11.891815l-3.160011,-11.726898l-0.038277,-4.560944l-0.038292,-4.560913l-3.26405,-0.153534c-1.7952,-0.084442 -3.367161,-0.217255 -3.49321,-0.295181c-0.12606,-0.077896 -1.24229,-0.296692 -2.48048,-0.48616c-2.42416,-0.370972 -4.23678,-1.054138 -5.035419,-1.897797c-0.274931,-0.290405 -1.35124,-1.797577 -2.391811,-3.349228c-1.555769,-2.319962 -2.026609,-3.254684 -2.649889,-5.260941c-0.67922,-2.186249 -0.745399,-2.660049 -0.63707,-4.560303l0.120909,-2.120575l-1.035379,0l-1.035351,0l-0.132318,-1.020233c-0.072762,-0.561096 -0.29929,-2.964615 -0.50341,-5.34108c-0.204111,-2.37648 -0.41518,-4.644943 -0.46908,-5.041031c-0.053871,-0.396088 -0.273001,-2.340485 -0.486959,-4.320892c-0.213951,-1.980408 -0.421822,-3.870789 -0.461922,-4.200851c-0.315409,-2.59581 -0.40946,-3.812943 -0.6215,-8.041672c-0.13238,-2.640518 -0.30699,-5.79184 -0.387989,-7.002914c-0.204161,-3.051743 -0.24074,-13.218689 -0.05125,-14.241409c0.0856,-0.462097 0.33506,-2.406525 0.55435,-4.320908c0.219311,-1.914391 0.44503,-3.804771 0.50161,-4.200859c0.540562,-3.7836 1.061811,-18.013344 1.066841,-29.124893c0.002119,-4.63839 0.356909,-7.754349 1.904339,-16.724495c0.694441,-4.025436 0.71549,-4.090836 1.551001,-4.817551c1.19598,-1.040237 4.720261,-2.942017 8.78916,-4.742828c9.849922,-4.359352 20.960512,-9.922112 22.03578,-11.032677c0.76487,-0.789993 0.792931,-0.889046 0.837173,-2.954803c0.042538,-1.987137 -0.008881,-2.242416 -0.731506,-3.631035c-0.937553,-1.801743 -2.217354,-5.240532 -2.217354,-5.958023c0,-1.1535 -0.484592,-1.97118 -1.260113,-2.126282c-0.413609,-0.082729 -1.085049,-0.513977 -1.492079,-0.958347c-0.969582,-1.058563 -1.81813,-4.461853 -1.812611,-7.269951c0.003479,-1.769619 0.0592,-2.0065 0.565491,-2.404739c0.525078,-0.413052 0.572578,-0.663631 0.730537,-3.854771c0.355751,-7.187359 0.82222,-9.284229 2.690592,-12.094669c1.924137,-2.894312 2.354496,-3.268091 5.489101,-4.767271c4.634895,-2.21674 4.782967,-2.25593 7.881142,-2.08589c6.486668,0.355989 11.37019,2.08238 14.441895,5.105419c1.402008,1.379791 2.105766,2.694 3.231377,6.0345c0.734962,2.18116 0.745262,2.277451 0.707855,6.62175c-0.037872,4.40081 -0.036842,4.410011 0.597748,5.343922c0.715714,1.053238 0.777138,1.842628 0.399231,5.129787c-0.212883,1.851742 -0.330978,2.167431 -1.378464,3.684772c-1.746956,2.53059 -2.000618,3.120647 -2.210773,5.142918c-0.106876,1.028324 -0.382267,2.506504 -0.611992,3.28487c-0.635845,2.154533 -0.419483,3.436295 0.908016,5.37915c2.005684,2.93541 2.849571,3.417961 8.090614,4.626343c1.650337,0.380486 7.969635,2.0364 14.042885,3.679787c10.345993,2.799583 11.080124,3.03363 11.64238,3.711761c0.763023,0.920212 2.74218,5.448997 4.21003,9.633583c1.073746,3.060959 1.15435,3.466957 1.453674,7.321495c0.297562,3.832184 0.575783,5.701813 1.76815,11.882439c0.534882,2.772476 2.089706,11.963943 2.883087,17.043503c0.278389,1.782364 0.779709,4.664124 1.114044,6.403915c0.599686,3.120621 0.606628,3.29216 0.514069,12.722603l-0.093811,9.559357l-2.323891,13.64975c-1.278122,7.507324 -2.323868,13.686218 -2.323868,13.730804c0,0.044632 -0.608055,0.113525 -1.351219,0.153107l-1.351212,0.071991l0.002037,1.320282c0.001114,0.726135 0.07972,2.778564 0.174683,4.560928c0.169739,3.185654 -0.152191,7.01564 -0.847374,10.082077c-0.253624,1.118668 0.199844,4.094727 3.108986,20.404175c0.529846,2.970612 1.131195,6.373291 1.336296,7.561554c0.205101,1.188248 0.534645,3.024597 0.732315,4.080826c0.356628,1.905472 0.637909,4.312943 1.55661,13.322739c0.262505,2.574509 0.598244,5.599136 0.746063,6.721375c0.40184,3.050476 0.594826,56.925842 0.215561,60.174591c-0.196785,1.685608 -0.576088,3.244171 -1.22374,5.02832c-0.688629,1.897064 -0.938568,2.958466 -0.938568,3.98587c0,0.770172 -0.286484,2.54364 -0.636627,3.94101c-0.60289,2.405975 -0.678024,2.558014 -1.416534,2.866577c-0.73806,0.308411 -0.769508,0.371857 -0.586426,1.183716c0.106415,0.471802 0.481377,1.446259 0.833237,2.165436c0.603699,1.233917 1.197784,1.851074 4.997269,5.191528c1.180573,1.037903 2.090164,3.444702 2.090164,5.530518c0,1.437439 -0.02269,1.488373 -1.106079,2.483063c-0.738075,0.677612 -1.408981,1.063904 -2.016457,1.161072c-1.866219,0.298401 -3.447968,1.090729 -4.154503,2.081055c-0.371643,0.520905 -0.863152,0.947083 -1.092232,0.947083c-0.229103,0 -0.54615,0.129639 -0.70459,0.288055c-0.224045,0.22403 -0.288063,0.197388 -0.288063,-0.120026c0,-0.477936 -0.266617,-0.525543 -0.672127,-0.120026c-0.217293,0.217316 -0.288071,0.21875 -0.288071,0.005951c0,-0.205688 -0.171585,-0.216888 -0.633415,-0.041321c-0.348358,0.132477 -0.69043,0.183807 -0.760139,0.114105c-0.069717,-0.069702 0.017281,-0.12674 0.193314,-0.12674c0.176048,0 0.263046,-0.057037 0.193329,-0.12674c-0.06971,-0.069733 -0.411781,-0.018372 -0.760162,0.114075c-0.47068,0.178955 -0.634346,0.165253 -0.637085,-0.053314c-0.00235,-0.188843 -0.088264,-0.165253 -0.240051,0.065979c-0.148262,0.22583 -0.30349,0.270569 -0.416412,0.120026c-0.245567,-0.327423 -2.781258,-0.377838 -2.978188,-0.059204c-0.109932,0.177856 -0.382103,0.163086 -0.893044,-0.048584c-0.541328,-0.224213 -0.925171,-0.238068 -1.457169,-0.052643c-0.472992,0.164886 -0.772858,0.169861 -0.868927,0.014404c-0.096214,-0.15567 -0.247513,-0.153687 -0.439583,0.005707c-0.317337,0.263367 -2.257988,0.225983 -2.708076,-0.052185c-0.152176,-0.094055 -0.5345,-0.072998 -0.849594,0.046814c-0.348717,0.132568 -0.731071,0.129272 -0.977165,-0.008453c-0.257004,-0.143829 -0.568794,-0.138153 -0.855972,0.015503c-0.248444,0.132965 -0.534698,0.164551 -0.636131,0.07016c-0.101418,-0.09436 -0.1306,0.125488 -0.064857,0.488556c0.12764,0.704712 0.115608,0.749634 -0.133919,0.500092zm9.63562,-2.606873c-0.073914,-0.073883 -0.208145,0.059326 -0.298286,0.296082c-0.130264,0.342102 -0.102699,0.369659 0.134384,0.134369c0.164047,-0.162842 0.237808,-0.356537 0.163902,-0.43045z"/>
  </g>
 </g>
</svg>